<svg width="200" height="200" viewBox="0 0 200 200" fill="none" xmlns="http://www.w3.org/2000/svg">
<path fill-rule="evenodd" clip-rule="evenodd" d="M100 0C44.7715 0 0 44.7715 0 100C0 155.228 44.7715 200 100 200C155.228 200 200 155.228 200 100C200 44.7715 155.228 0 100 0ZM100 50.8434H124.578C129.467 50.8434 132.289 51.8764 134.355 52.6327C134.733 52.7711 135.086 52.9002 135.422 53.0121C136.025 53.3138 136.597 53.5841 137.144 53.8426C139.219 54.8226 140.935 55.6334 142.651 57.3494C144.819 59.5181 146.265 61.6868 146.988 64.5783C147.711 66.747 148.434 69.6386 149.157 75.4217V100V124.578C149.157 129.467 148.124 132.289 147.367 134.355L147.367 134.356C147.229 134.734 147.1 135.086 146.988 135.422C146.686 136.025 146.416 136.597 146.157 137.144C145.177 139.219 144.367 140.935 142.651 142.651C140.482 144.819 138.313 146.265 135.422 146.988C133.253 147.711 130.361 148.434 124.578 149.157H100H75.4217C70.5332 149.157 67.7108 148.124 65.6447 147.367L65.6438 147.367C65.266 147.229 64.9135 147.1 64.5783 146.988C63.9748 146.686 63.4028 146.416 62.8557 146.157C60.7815 145.177 59.0655 144.367 57.3494 142.651C55.1807 140.482 53.7349 138.313 53.0121 135.422C52.2892 133.253 51.5663 130.361 50.8434 124.578V100V75.4217C50.8434 70.5332 51.8764 67.7108 52.6327 65.6447L52.6327 65.6446C52.7711 65.2665 52.9002 64.9138 53.0121 64.5783C53.3138 63.9748 53.5841 63.4028 53.8426 62.8557C54.8226 60.7815 55.6334 59.0654 57.3494 57.3494C59.5181 55.1807 61.6868 53.7349 64.5783 53.0121C66.747 52.2892 69.6386 51.5663 75.4217 50.8434H100ZM100 40H75.4217C68.9157 40 64.5783 41.4458 60.9639 42.8916C57.3494 44.3374 53.7349 46.506 50.1205 50.1205C46.506 53.7349 45.0602 56.6265 42.8916 60.9639C41.4458 64.5783 40.7229 68.9157 40 75.4217V100V124.578C40 131.084 41.4458 135.422 42.8916 139.036C44.3374 142.651 46.506 146.265 50.1205 149.88C53.7349 153.494 56.6265 154.94 60.9639 157.108C64.5783 158.554 68.9157 159.277 75.4217 160H100H124.578C131.084 160 135.422 158.554 139.036 157.108C142.651 155.663 146.265 153.494 149.88 149.88C153.494 146.265 154.94 143.374 157.108 139.036C158.554 135.422 159.277 131.084 160 124.578V100V75.4217C160 68.9157 158.554 64.5783 157.108 60.9639C155.663 57.3494 153.494 53.7349 149.88 50.1205C146.265 46.506 143.374 45.0602 139.036 42.8916C135.422 41.4458 131.084 40.7229 124.578 40H100ZM100 68.9157C82.6506 68.9157 68.9157 82.6506 68.9157 100C68.9157 117.349 82.6506 131.084 100 131.084C117.349 131.084 131.084 117.349 131.084 100C131.084 82.6506 117.349 68.9157 100 68.9157ZM100 120.241C89.1566 120.241 79.759 111.566 79.759 100C79.759 89.1566 88.4337 79.759 100 79.759C110.843 79.759 120.241 88.4337 120.241 100C120.241 110.843 110.843 120.241 100 120.241ZM139.036 68.1928C139.036 72.1852 135.8 75.4217 131.807 75.4217C127.815 75.4217 124.578 72.1852 124.578 68.1928C124.578 64.2004 127.815 60.9639 131.807 60.9639C135.8 60.9639 139.036 64.2004 139.036 68.1928Z" fill="white"/>
</svg>
