<svg width="200" height="200" viewBox="0 0 200 200" fill="none" xmlns="http://www.w3.org/2000/svg">
<path fill-rule="evenodd" clip-rule="evenodd" d="M100 0C44.7715 0 0 44.7715 0 100C0 155.228 44.7715 200 100 200C155.228 200 200 155.228 200 100C200 44.7715 155.228 0 100 0ZM132.018 154.504L151 54.8259C151 48.1916 142.241 52.2004 142.241 52.2004L35.6678 95.7495C35.6678 95.7495 30.6217 97.545 31.0227 100.865C31.4185 104.179 35.5325 105.704 35.5325 105.704L61.6745 114.866L129.435 70.042C133.039 67.7637 134.966 69.5592 131.862 72.5754C129.857 74.5228 83.9837 117.486 78.0679 123.019L78.271 123.122L122.067 158.1C129.363 161.415 132.018 154.504 132.018 154.504Z" fill="white"/>
</svg>
