<svg width="200" height="200" viewBox="0 0 200 200" fill="none" xmlns="http://www.w3.org/2000/svg">
<path fill-rule="evenodd" clip-rule="evenodd" d="M100 0C44.7715 0 0 44.7715 0 100C0 155.228 44.7715 200 100 200C155.228 200 200 155.228 200 100C200 44.7715 155.228 0 100 0ZM40 62C40.9744 109.699 64.3598 138.364 105.359 138.364H107.683V111.075C114.915 112.003 121.717 115.088 127.237 119.943C132.757 124.797 136.749 131.205 138.713 138.364H160C157.812 130.122 153.935 122.447 148.625 115.846C143.314 109.245 136.692 103.867 129.194 100.067C135.911 95.9089 141.715 90.3819 146.241 83.8318C150.768 77.2817 153.921 69.8495 155.503 62H136.165C131.968 77.1351 119.525 90.8943 107.683 92.1938V62H88.3448V114.897C76.3523 111.839 61.2117 97.0096 60.5372 62H40Z" fill="white"/>
</svg>
